<?xml version="1.0" encoding="utf-8"?>
<!-- Generator: Adobe Illustrator 24.1.2, SVG Export Plug-In . SVG Version: 6.00 Build 0)  -->
<svg version="1.1" id="Layer_1" xmlns="http://www.w3.org/2000/svg" xmlns:xlink="http://www.w3.org/1999/xlink" x="0px" y="0px"
	 viewBox="0 0 263.76 264" style="enable-background:new 0 0 263.76 264;" xml:space="preserve">
<style type="text/css">
	.st0{display:none;}
	.st1{display:inline;fill:#FF0000;stroke:#231F20;stroke-miterlimit:10;}
	.st2{display:inline;}
	.st3{fill:#FFFFFF;}
	.st4{display:inline;fill:#FFFFFF;}
	.st5{fill:#FD5703;}
</style>
<g id="Layer_2" class="st0">
	<rect x="-1280.33" y="-93.39" class="st1" width="1720.96" height="467.22"/>
</g>
<rect x="-1307.72" y="-48" class="st0" width="1629.39" height="360"/>
<g>
	<g class="st0">
		<circle class="st4" cx="132" cy="132" r="132"/>
	</g>
	<circle class="st3" cx="132" cy="132" r="132"/>
	<path d="M171.53,236.14c-8.14-0.08-16.28-0.19-24.42-0.22c-15.62-0.05-31.21-0.8-46.78-2.03c-2.81-0.22-5.64-0.42-8.46-0.4
		c-2.54,0.02-3.47,1.63-2.56,4c0.97,2.51,2.84,4.14,5.35,4.81c4.48,1.2,8.96,2.66,13.53,3.15c7.65,0.82,15.36,0.97,21.63,1.32
		c8.29-0.34,15.14-0.4,21.96-0.95c6.87-0.55,13.7-1.56,20.54-2.42c1.95-0.24,3.51-1.85,3.38-3.29
		C175.54,238.49,173.09,236.15,171.53,236.14z"/>
	<g>
		<path class="st3" d="M183.04,175.31c-0.12-0.04-0.24-0.1-0.36-0.15C182.8,175.21,182.92,175.27,183.04,175.31L183.04,175.31z"/>
		<path class="st3" d="M147.78,74.47c6.22,13.98,12.35,28,18.71,41.92c2.66,5.82,5.48,11.61,8.76,17.09
			c4.71,7.88,9.9,15.46,14.87,23.18c0.19,0.3,0.31,0.65,0.59,1.24c10.46-23.99,18.63-48.15,26.32-72.68
			c-23.37-3.82-46.63-6.81-69.65-11.76C147.54,73.86,147.65,74.17,147.78,74.47z"/>
		<path class="st3" d="M108.32,71c-18.19,3.61-36.04,7.16-54.04,10.74c5.93,24.21,11.82,48.24,17.7,72.28
			C86.87,127.54,96.1,98.8,108.32,71z"/>
		<path class="st3" d="M182.87,175.65c0.06-0.12,0.11-0.24,0.17-0.34c-0.12-0.04-0.24-0.1-0.36-0.15c-0.12-0.06-0.24-0.11-0.36-0.16
			c-0.24-0.1-0.48-0.18-0.72-0.18c-2.43,0.08-4.85,0.24-7.27,0.39c-13.22,0.8-26.43,1.77-39.65,2.34
			c-12.27,0.53-24.56,0.67-36.85,0.9c-3.07,0.06-6.14-0.2-9.21-0.31c-0.04,0.13-0.08,0.26-0.12,0.39
			c13.91,13.31,28.75,25.4,45.86,34.82c2-3.46,5.02-5.62,8.04-7.81c13.31-9.63,26.59-19.29,39.87-28.96
			C182.55,176.38,182.7,176.01,182.87,175.65z"/>
		<path class="st3" d="M202.69,69.66c-5.44-2.95-10.9-5.87-16.35-8.79c-4.36-2.33-8.6-4.94-13.13-6.9
			c-7.42-3.21-15.04-5.94-22.54-8.96c-5.06-2.04-10.37-3.54-14.95-6.67c-0.31-0.21-0.74-0.26-1.33-0.45
			c-0.22,6.02-0.43,11.81-0.64,17.57c23.37,7.33,46.8,14.9,71.89,16.07C204.58,70.85,203.67,70.19,202.69,69.66z"/>
		<path class="st3" d="M63.72,69.06c5.38-0.96,10.85-1.58,16.13-2.94c13.77-3.53,27.47-7.38,41.18-11.13
			c0.81-0.22,1.58-0.67,2.28-1.15c0.39-0.27,0.81-0.81,0.82-1.24c0.12-4.93,0.17-9.86,0.25-15.21c-1.27,0.64-2.15,1.07-3.03,1.52
			c-6.63,3.44-13.2,7.01-19.9,10.3c-10.37,5.1-20.87,9.95-31.25,15.04c-2.57,1.26-4.89,3.01-7.33,4.54
			C63.27,69.1,63.5,69.1,63.72,69.06z"/>
		<path class="st3" d="M58.83,145.48c-3.12-9.07-5.49-18.4-8.19-27.62c-0.04,0.01-0.08,0.01-0.13,0.02
			c0.55,21.06,1.1,42.12,1.65,63.38c5.91-3.07,11.57-6.02,17.19-8.94C65.84,163.44,61.96,154.59,58.83,145.48z"/>
		<path class="st3" d="M217.5,118.56c0-0.3-0.29-0.59-0.45-0.89c-0.21,0.21-0.46,0.4-0.61,0.64c-0.15,0.23-0.2,0.53-0.29,0.8
			c-4.81,14.72-9.62,29.44-14.42,44.16c-0.51,1.56-0.98,3.13-1.49,4.77c4.32,1.46,8.45,2.86,12.73,4.31
			c0.16-0.68,0.3-1.18,0.39-1.69c2.67-14.73,3.76-29.6,4.03-44.55C217.45,123.6,217.5,121.08,217.5,118.56z"/>
		<path class="st3" d="M76.84,182c-0.71-0.68-1.19-0.59-1.95-0.15c-6.43,3.71-12.88,7.38-19.33,11.07
			c-0.42,0.24-0.81,0.54-1.22,0.81c0.01,0.19,0.03,0.38,0.04,0.57c14.82-0.47,28.74,3.92,42.98,7.68c-0.21-0.35-0.26-0.49-0.36-0.58
			C90.28,194.94,83.54,188.49,76.84,182z"/>
		<path class="st3" d="M194.04,177.5c-4.88,4.32-9.76,8.64-14.69,12.91c-3.66,3.18-7.38,6.29-11.12,9.48
			c0.27,0.42,0.49,0.76,0.79,1.22c12.37-6.85,24.58-13.62,37-20.5c-2.83-1.31-5.42-2.48-7.99-3.7
			C196.28,176.08,195.52,176.2,194.04,177.5z"/>
		<path d="M229.94,77.09c-2.35-3.09-5.39-5.5-8.65-7.59c-2.2-1.41-4.55-2.57-6.77-3.95c-4.64-2.89-9.06-6.19-13.89-8.73
			c-11.1-5.84-22.35-11.4-33.61-16.91c-6.26-3.06-12.66-5.88-19.06-8.65c-5.04-2.19-10.18-4.16-15.29-6.19
			c-2.64-1.05-5.31-1.5-8.01-0.09c-2.4,1.26-4.88,2.39-7.22,3.75C95,41.77,72.73,55.1,49.04,65.85c-4.89,2.22-7.71,5.74-8.08,11.39
			c-0.74,11.25-2.35,22.45-2.68,33.7c-0.37,12.3,0.14,24.63,0.56,36.94c0.53,15.55,2.15,31.03,4.37,46.43
			c0.62,4.32,2.93,7.41,7.12,9.05c6.5,2.53,13.18,4.38,19.99,5.83c10.05,2.14,20.13,4.24,30.08,6.79
			c8.71,2.24,17.26,5.08,25.87,7.66c2.87,0.86,5.74,0.69,8.57-0.09c1.6-0.44,3.14-1.09,4.72-1.61c6.5-2.17,13.21-3.84,19.46-6.57
			c15.71-6.86,31.24-14.1,46.77-21.37c4.89-2.29,9.96-4.2,14.53-7.26c3.46-2.31,5.17-5.01,4.92-9.05c-0.03-0.57-0.02-1.14-0.02-1.71
			c-0.1-11.57,0.29-23.12,1.51-34.63c1.24-11.78,2.42-23.57,3.47-33.84c0.36-9.95,0.72-18.36,0.92-26.78
			C231.15,79.52,230.68,78.06,229.94,77.09z M217.03,85.22c-7.69,24.53-15.86,48.69-26.32,72.68c-0.28-0.59-0.39-0.94-0.59-1.24
			c-4.98-7.71-10.17-15.3-14.87-23.18c-3.28-5.49-6.11-11.27-8.76-17.09c-6.35-13.92-12.49-27.94-18.71-41.92
			c-0.13-0.3-0.24-0.61-0.41-1.02C170.4,78.41,193.65,81.4,217.03,85.22z M134.4,37.89c0.58,0.19,1.02,0.23,1.33,0.45
			c4.58,3.13,9.89,4.63,14.95,6.67c7.5,3.02,15.12,5.75,22.54,8.96c4.52,1.96,8.77,4.56,13.13,6.9c5.46,2.92,10.91,5.84,16.35,8.79
			c0.98,0.53,1.9,1.2,2.95,1.87c-25.09-1.17-48.52-8.74-71.89-16.07C133.96,49.7,134.18,43.91,134.4,37.89z M127.69,64.46
			c17.63,32.77,35.12,65.29,52.74,98.05c-33.1,3.21-66.04,4.96-99.33,4.23C94.82,131.78,109.48,97.48,127.69,64.46z M70.21,64.27
			c10.38-5.09,20.87-9.94,31.25-15.04c6.7-3.29,13.27-6.86,19.9-10.3c0.87-0.45,1.76-0.89,3.03-1.52
			c-0.07,5.35-0.12,10.28-0.25,15.21c-0.01,0.43-0.43,0.97-0.82,1.24c-0.7,0.48-1.47,0.93-2.28,1.15
			c-13.72,3.75-27.41,7.6-41.18,11.13c-5.28,1.35-10.75,1.98-16.13,2.94c-0.22,0.04-0.45,0.04-0.84-0.26
			C65.32,67.28,67.64,65.52,70.21,64.27z M108.32,71c-12.22,27.8-21.45,56.54-36.34,83.01c-5.89-24.04-11.77-48.07-17.7-72.28
			C72.28,78.16,90.13,74.62,108.32,71z M50.51,117.88c0.04-0.01,0.08-0.01,0.13-0.02c2.7,9.22,5.07,18.55,8.19,27.62
			c3.13,9.1,7,17.95,10.52,26.84c-5.62,2.92-11.28,5.86-17.19,8.94C51.61,160.01,51.06,138.94,50.51,117.88z M54.39,194.3
			c-0.01-0.19-0.03-0.38-0.04-0.57c0.41-0.27,0.8-0.57,1.22-0.81c6.44-3.69,12.9-7.36,19.33-11.07c0.76-0.44,1.24-0.53,1.95,0.15
			c6.7,6.49,13.44,12.93,20.17,19.4c0.1,0.09,0.15,0.23,0.36,0.58C83.12,198.22,69.2,193.83,54.39,194.3z M142.4,205.54
			c-3.02,2.18-6.03,4.35-8.04,7.81c-17.11-9.42-31.95-21.51-45.86-34.82c0.04-0.13,0.08-0.26,0.12-0.39
			c3.07,0.11,6.14,0.37,9.21,0.31c12.28-0.23,24.57-0.37,36.85-0.9c13.23-0.57,26.44-1.55,39.65-2.34c2.42-0.15,4.85-0.31,7.27-0.39
			c0.24-0.01,0.48,0.07,0.72,0.18c0.12,0.05,0.24,0.11,0.36,0.16c0.12,0.06,0.24,0.11,0.36,0.15v0c-0.06,0.11-0.12,0.22-0.17,0.34
			c-0.17,0.36-0.32,0.73-0.6,0.93C168.99,186.26,155.71,195.91,142.4,205.54z M165.12,203.31c-0.3-0.46,2.69-2.94,3.11-3.42
			c3.74-3.19,7.46-6.3,11.12-9.48c4.92-4.28,9.8-8.6,14.69-12.91c1.48-1.3,2.23-1.42,3.99-0.59c2.57,1.22,5.16,2.39,7.99,3.7
			C193.61,187.49,177.49,196.46,165.12,203.31z M213.37,170.66c-0.09,0.51-0.23,1.01-0.39,1.69c-4.28-1.45-8.41-2.85-12.73-4.31
			c0.51-1.64,0.98-3.21,1.49-4.77c4.8-14.72,9.61-29.44,14.42-44.16c0.09-0.27,0.14-0.57,0.29-0.8c0.15-0.25,0.4-0.43,0.61-0.64
			c0.16,0.3,0.45,0.59,0.45,0.89c0,2.52-0.05,5.04-0.1,7.56C217.13,141.06,216.04,155.93,213.37,170.66z"/>
		<path class="st3" d="M127.69,64.46c-18.21,33.02-32.87,67.32-46.59,102.28c33.29,0.73,66.24-1.02,99.33-4.23
			C162.81,129.75,145.32,97.23,127.69,64.46z"/>
		<path class="st5" d="M98.59,157.05c11.73,0.27,23.42-0.15,35.07-1.7c7.47-0.99,14.98-1.33,22.53-0.94
			c3.39,0.18,6.8-0.25,10.47-0.41c-0.48-0.96-0.77-1.66-1.16-2.29c-7.47-11.93-14.97-23.86-22.43-35.79
			c-6-9.6-12.17-19.11-15.75-29.98c-0.16-0.49-0.56-0.9-1.11-1.73c-10.37,24.27-20.56,48.14-30.91,72.35
			C96.58,156.76,97.58,157.03,98.59,157.05z"/>
	</g>
</g>
</svg>
